<svg width="117" height="60" viewBox="0 0 117 60" fill="none" xmlns="http://www.w3.org/2000/svg">
<path d="M7.98197 21.8338C5.03015 21.8338 3.01727 23.3343 3.01727 25.7008C3.01727 31.369 15.565 28.3682 15.565 36.6043C15.565 39.971 12.6132 42.24 7.98402 42.24C3.89075 42.24 1.27441 40.7721 0 39.7068L1.30919 38.0721C2.34836 38.9382 4.36124 40.4061 7.98606 40.4061C11.4084 40.4061 13.4887 38.8732 13.4887 36.6043C13.4887 30.0699 0.908251 33.3696 0.908251 25.7353C0.908251 22.3015 3.82734 20 7.98811 20C13.3885 20 14.8327 23.3017 15.3687 24.9343L13.3558 25.4345C13.053 24.3 11.7111 21.8338 7.98811 21.8338H7.98197Z" fill="white"/>
<path d="M36.9482 26.9694L34.9353 27.3029C34.9353 25.6357 33.5259 21.8338 28.8292 21.8338C24.5006 21.8338 21.1131 25.2677 21.1131 31.1373C21.1131 37.3728 24.7707 40.4061 29.2996 40.4061C32.6872 40.4061 34.8351 38.373 35.8415 37.0048L37.1507 38.306C36.4122 39.3062 33.9636 42.24 29.2321 42.24C23.1608 42.24 19 38.1392 19 31.1373C19 24.1353 23.0933 20 28.7964 20C34.9353 20 36.8807 24.6009 36.9482 26.9694Z" fill="white"/>
<path d="M58.3035 41.9391C58.3035 41.9391 57.7328 42.0387 57.0291 42.0387C51.3934 42.0387 52.9031 33.2029 46.797 33.2029H44.0804V41.872H42V20H48.4416C53.2386 20 56.1577 22.2669 56.1577 26.6685C56.1577 29.9703 53.9443 32.103 50.7573 32.8695C54.0793 34.1361 54.3473 40.339 57.6019 40.339C57.9373 40.339 58.1378 40.2719 58.1378 40.2719L58.3056 41.9391H58.3035ZM48.0714 31.5358C51.4589 31.5358 54.0425 29.8015 54.0425 26.6685C54.0425 23.5355 51.8946 21.8013 48.3393 21.8013H44.0783V31.5378H48.0714V31.5358Z" fill="white"/>
<path d="M116.807 41.87H114.391L103.958 25.9997C103.253 24.8652 102.181 23.0313 102.046 22.765L101.911 22.8321C101.978 23.0984 102.046 24.4321 102.046 25.8004L102.113 41.872H100V20H102.416L112.848 35.972C113.855 37.572 114.426 38.6068 114.726 39.172L114.894 39.105C114.861 38.739 114.726 37.4704 114.726 36.1041L114.694 20H116.807V41.872V41.87Z" fill="white"/>
<path d="M85.1054 16.0519C86.9246 16.8931 88.8586 17.86 90.6611 19.005C91.5414 19.5651 92.3929 20.1679 93.1816 20.8224C95.9665 23.1287 97.9977 26.057 98 29.8898C97.9792 33.8501 95.8368 36.865 92.8125 39.2638C91.9945 39.9121 91.1124 40.5179 90.1904 41.0821C87.5887 42.6764 84.6683 43.9645 81.9834 45.0909C81.7149 45.2038 81.4497 45.3152 81.1875 45.4239C80.1969 45.8363 79.2474 46.2281 78.3691 46.6056C78.0612 46.7348 77.7513 46.8642 77.4433 46.9913C77.1727 47.1042 76.9042 47.2155 76.6357 47.3263C73.5448 48.6046 70.4681 49.8683 67.6103 51.5919C67.3939 51.7273 67.1605 51.8402 66.9316 51.9571C64.2155 53.2786 61.4706 54.9798 60.0302 57.6964C59.6597 58.3838 59.3887 59.1331 59.2138 59.921C59.1866 60.0377 59.0122 60.0213 59.0078 59.9005C58.9724 59.0797 59.058 58.2401 59.2578 57.4132C60.1091 54.0913 62.7147 51.5326 65.3955 49.5177C67.7663 48.0546 70.3206 46.8724 72.8974 45.7726C73.1597 45.6597 73.4223 45.5484 73.6845 45.4376C74.875 44.937 76.0699 44.4487 77.25 43.9542C77.3082 43.9296 77.3665 43.9027 77.4267 43.8761C77.6826 43.7654 77.949 43.653 78.2256 43.5382C79.9114 42.8283 81.937 42.0239 83.9912 41.0821H80.3203V39.2638H87.5947C91.485 37.0682 94.7669 34.2545 95.0625 30.5138H82.4013V28.6984H94.9795C94.3904 25.1751 91.3891 22.7102 88.1025 20.8224H80.3203V19.005H84.581C84.0856 18.767 83.6 18.539 83.1338 18.3194C82.576 18.0671 82.0159 17.8203 81.456 17.5782L85.1054 16.0519ZM59.0136 0.0987434C59.0199 -0.0202707 59.1947 -0.0367734 59.2197 0.0801887C60.067 3.95406 63.4739 6.39013 66.956 8.04601C69.5598 9.61153 72.3094 10.875 75.1025 12.0548L71.4277 13.5909C69.3926 12.6739 67.3781 11.6772 65.4033 10.5079C62.0481 8.06411 58.7662 4.42001 59.0136 0.0987434Z" fill="url(#paint0_linear_1844_366)"/>
<path d="M84.8623 46.6349C86.819 47.5197 88.7573 48.4833 90.6562 49.6056C93.9799 52.0226 97.2335 55.6286 96.9863 59.9025C96.9801 60.0202 96.807 60.0367 96.7822 59.921C95.943 56.0895 92.5677 53.6808 89.1182 52.0431C87.3038 50.9533 83.43 49.1716 81.1865 48.171L84.8623 46.6349ZM96.4238 0.0782363C96.4489 -0.0369009 96.6216 -0.0206574 96.6279 0.0987441C96.663 0.910524 96.5759 1.74076 96.3779 2.56066C95.5346 5.8463 92.9536 8.37732 90.2979 10.3702C87.9493 11.8172 85.4188 12.9856 82.8662 14.0734C82.6065 14.1849 82.3466 14.2948 82.0869 14.4044C80.9077 14.8995 79.7246 15.3832 78.5557 15.8722C78.4979 15.8965 78.4397 15.9229 78.3799 15.9493C78.1263 16.0589 77.8621 16.1707 77.5879 16.2843C75.9199 16.9844 73.9137 17.7796 71.8809 18.711H75.5156V20.5089H68.3115C64.7631 22.5079 61.7239 25.0246 61.0352 28.298H73.3691V30.0939H60.8975C61.0975 34.0451 64.2823 36.7289 67.7998 38.7482H75.5156V40.546H71.2891C71.7818 40.7814 72.2647 41.0086 72.7266 41.2257C73.1884 41.4347 73.8252 41.711 74.4395 41.9747L70.8125 43.4864C68.9982 42.6504 67.0644 41.6884 65.2666 40.546C64.3925 39.9921 63.5509 39.3934 62.7695 38.7482C60.089 36.5279 58.1131 33.7306 58.0059 30.0939C58.0017 29.9905 58 29.8868 58 29.7814C58.0021 29.2701 58.0412 28.7768 58.1113 28.298C58.5877 25.0976 60.5343 22.5728 63.1426 20.5089C63.9528 19.8657 64.8269 19.2691 65.7402 18.711C68.3176 17.1342 71.2084 15.8613 73.8662 14.7472C74.1322 14.6356 74.3945 14.5266 74.6543 14.4191C75.6357 14.0112 76.5762 13.6235 77.4463 13.2501C77.7513 13.1223 78.0582 12.9941 78.3633 12.8683C78.6313 12.7567 78.8972 12.6468 79.1631 12.5372C82.2249 11.2729 85.2726 10.0231 88.1035 8.31847C88.318 8.18453 88.5496 8.07282 88.7764 7.95714C91.4671 6.65019 94.1865 4.96732 95.6133 2.28038C95.9823 1.59853 96.2506 0.857489 96.4238 0.0782363Z" fill="url(#paint1_linear_1844_366)"/>
<defs>
<linearGradient id="paint0_linear_1844_366" x1="87.8707" y1="50.465" x2="83.8656" y2="10.0869" gradientUnits="userSpaceOnUse">
<stop stop-color="#9AC5FF"/>
<stop offset="0.49969" stop-color="#B5FFB4"/>
<stop offset="1" stop-color="#FADA80"/>
</linearGradient>
<linearGradient id="paint1_linear_1844_366" x1="73.6564" y1="11.6617" x2="64.7508" y2="50.6299" gradientUnits="userSpaceOnUse">
<stop stop-color="#9AC5FF"/>
<stop offset="0.5" stop-color="#FF6E6E"/>
<stop offset="1" stop-color="#FADA80"/>
</linearGradient>
</defs>
</svg>
