<svg width="117" height="61" viewBox="0 0 117 61" fill="none" xmlns="http://www.w3.org/2000/svg">
<path d="M8.48197 21.2413C5.53015 21.2413 3.51727 22.7417 3.51727 25.1083C3.51727 30.7765 16.065 27.7757 16.065 36.0117C16.065 39.3785 13.1132 41.6474 8.48402 41.6474C4.39075 41.6474 1.77441 40.1796 0.5 39.1142L1.80919 37.4796C2.84836 38.3457 4.86124 39.8136 8.48606 39.8136C11.9084 39.8136 13.9887 38.2807 13.9887 36.0117C13.9887 29.4774 1.40825 32.7771 1.40825 25.1428C1.40825 21.7089 4.32734 19.4075 8.48811 19.4075C13.8885 19.4075 15.3327 22.7092 15.8687 24.3418L13.8558 24.8419C13.553 23.7075 12.2111 21.2413 8.48811 21.2413H8.48197Z" fill="#2F2F2F"/>
<path d="M37.5693 26.3769L35.5564 26.7103C35.5564 25.0432 34.147 21.2413 29.4502 21.2413C25.1217 21.2413 21.7342 24.6752 21.7342 30.5447C21.7342 36.7802 25.3918 39.8136 29.9207 39.8136C33.3083 39.8136 35.4562 37.7805 36.4626 36.4122L37.7718 37.7134C37.0333 38.7137 34.5847 41.6474 29.8532 41.6474C23.7819 41.6474 19.6211 37.5467 19.6211 30.5447C19.6211 23.5428 23.7144 19.4075 29.4175 19.4075C35.5564 19.4075 37.5018 24.0084 37.5693 26.3769Z" fill="#2F2F2F"/>
<path d="M58.5359 41.5477C58.5359 41.5477 57.9652 41.6473 57.2615 41.6473C51.6259 41.6473 53.1355 32.8115 47.0294 32.8115H44.3128V41.4806H42.2324V19.6086H48.674C53.471 19.6086 56.3901 21.8755 56.3901 26.2772C56.3901 29.5789 54.1767 31.7116 50.9897 32.4781C54.3117 33.7447 54.5797 39.9477 57.8343 39.9477C58.1698 39.9477 58.3702 39.8806 58.3702 39.8806L58.538 41.5477H58.5359ZM48.3038 31.1444C51.6913 31.1444 54.2749 29.4102 54.2749 26.2772C54.2749 23.1442 52.127 21.41 48.5718 21.41H44.3108V31.1464H48.3038V31.1444Z" fill="#2F2F2F"/>
<path d="M116.5 41.4801H114.084L103.652 25.6098C102.946 24.4753 101.874 22.6414 101.739 22.3751L101.604 22.4422C101.671 22.7085 101.739 24.0422 101.739 25.4105L101.806 41.4821H99.6934V19.6101H102.109L112.542 35.5821C113.548 37.1821 114.119 38.217 114.42 38.7822L114.587 38.7151C114.555 38.3491 114.42 37.0805 114.42 35.7142L114.387 19.6101H116.5V41.4821V41.4801Z" fill="#2F2F2F"/>
<g clip-path="url(#clip0_1808_93)">
<path d="M85.5081 16.2336C87.2956 17.0722 89.1959 18.0358 90.9671 19.177C91.8322 19.7354 92.6694 20.337 93.4446 20.9895C96.1811 23.2884 98.1768 26.2071 98.179 30.0276C98.1585 33.9751 96.0542 36.9803 93.0823 39.3713C92.2785 40.0176 91.4112 40.6214 90.5051 41.1838C87.9486 42.7729 85.079 44.0571 82.4407 45.1799C82.1768 45.2924 81.9162 45.4026 81.6585 45.511C80.6851 45.922 79.7529 46.3134 78.8899 46.6897C78.5873 46.8185 78.2824 46.9477 77.9798 47.0744C77.7139 47.1869 77.4496 47.297 77.1858 47.4074C74.1484 48.6817 71.1249 49.9413 68.3167 51.6594C68.1041 51.7943 67.8755 51.9072 67.6507 52.0237C64.9815 53.3409 62.2828 55.0363 60.8675 57.7444C60.5034 58.4296 60.2375 59.1767 60.0657 59.9621C60.0388 60.0782 59.8679 60.0619 59.8635 59.9416C59.8288 59.1235 59.9123 58.2864 60.1087 57.4621C60.9452 54.1508 63.5065 51.6005 66.1409 49.592C68.4705 48.1337 70.9799 46.9549 73.512 45.8586C73.7697 45.7461 74.0277 45.6361 74.2854 45.5256C75.4554 45.0265 76.6296 44.54 77.7893 44.0471C77.8466 44.0226 77.9039 43.9955 77.9632 43.969C78.2146 43.8586 78.4764 43.7465 78.7483 43.6321C80.4051 42.9244 82.3956 42.1226 84.4143 41.1838H80.8059V39.3713H87.9544C91.7771 37.1828 95.0028 34.3783 95.2932 30.6496H82.8518V28.8401H95.2112C94.6324 25.3282 91.683 22.8712 88.4534 20.9895H80.8059V19.177H84.9925C84.5059 18.9398 84.0295 18.7131 83.5716 18.4944C83.0235 18.2428 82.4732 17.9974 81.9231 17.7561L85.5081 16.2336ZM59.8528 0.0978762C59.8591 -0.0204086 60.0301 -0.0367139 60.055 0.0793215C60.8874 3.94081 64.2357 6.36915 67.6575 8.01975C70.2162 9.58036 72.9185 10.8407 75.6633 12.0168L72.052 13.5471C70.0522 12.633 68.0726 11.6394 66.1321 10.4739C62.835 8.03783 59.6094 4.40532 59.8528 0.0978762Z" fill="url(#paint0_linear_1808_93)"/>
<path d="M84.7979 46.892C86.7387 47.7837 88.6613 48.7551 90.5449 49.8861C93.842 52.3221 97.0697 55.9575 96.8242 60.265C96.8178 60.3832 96.647 60.3995 96.6221 60.2836C95.7896 56.4219 92.4404 53.9937 89.0186 52.3431C87.2185 51.2448 83.3756 49.4491 81.1504 48.4408L84.7979 46.892ZM96.6133 0.398796C96.6379 0.282273 96.8093 0.298673 96.8154 0.419304C96.8502 1.23745 96.7647 2.07442 96.5684 2.90075C95.7317 6.212 93.1705 8.7624 90.5361 10.7709C88.2066 12.2291 85.6971 13.407 83.165 14.5033C82.9073 14.6158 82.6493 14.7268 82.3916 14.8373C81.2219 15.3362 80.0481 15.823 78.8887 16.3158C78.8315 16.3403 78.7741 16.3674 78.7148 16.3939C78.4633 16.5044 78.2007 16.6163 77.9287 16.7308C76.2741 17.4364 74.2842 18.2384 72.2676 19.1771H75.873V20.9896H68.7266C65.2068 23.0042 62.1921 25.5403 61.5088 28.8392H73.7441V30.6498H61.3721C61.5705 34.6321 64.7304 37.3363 68.2197 39.3715H75.873V41.183H71.6807C72.1695 41.4202 72.6483 41.6497 73.1064 41.8685C73.5646 42.0792 74.1963 42.3576 74.8057 42.6234L71.208 44.1468C69.4081 43.3042 67.4896 42.3345 65.7061 41.183C64.8388 40.6246 64.0037 40.0219 63.2285 39.3715C60.5696 37.1338 58.6103 34.315 58.5039 30.6498C58.4998 30.5455 58.498 30.4407 58.498 30.3343C58.5001 29.8191 58.5389 29.3218 58.6084 28.8392C59.081 25.6139 61.0123 23.0697 63.5996 20.9896C64.4034 20.3413 65.2707 19.7395 66.1768 19.1771C68.7334 17.588 71.601 16.3058 74.2373 15.183C74.5011 15.0705 74.7609 14.9593 75.0186 14.8509C75.9921 14.4399 76.925 14.0495 77.7881 13.6732C78.0907 13.5444 78.3956 13.4152 78.6982 13.2884C78.9639 13.176 79.2276 13.0658 79.4912 12.9554C82.5285 11.6812 85.5521 10.4215 88.3604 8.70348C88.5731 8.56849 88.8024 8.45581 89.0273 8.33923C91.6964 7.02207 94.3941 5.32636 95.8096 2.61852C96.1757 1.93128 96.4415 1.18421 96.6133 0.398796Z" fill="url(#paint1_linear_1808_93)"/>
</g>
<defs>
<linearGradient id="paint0_linear_1808_93" x1="88.2098" y1="50.302" x2="84.1613" y2="10.0655" gradientUnits="userSpaceOnUse">
<stop stop-color="#9AC5FF"/>
<stop offset="0.49969" stop-color="#B5FFB4"/>
<stop offset="1" stop-color="#FADA80"/>
</linearGradient>
<linearGradient id="paint1_linear_1808_93" x1="74.029" y1="12.0728" x2="64.9246" y2="51.2839" gradientUnits="userSpaceOnUse">
<stop stop-color="#9AC5FF"/>
<stop offset="0.5" stop-color="#FF6E6E"/>
<stop offset="1" stop-color="#FADA80"/>
</linearGradient>
<clipPath id="clip0_1808_93">
<rect width="39.68" height="60.3627" fill="white" transform="translate(58.5)"/>
</clipPath>
</defs>
</svg>
