<svg width="115" height="60" viewBox="0 0 115 60" fill="none" xmlns="http://www.w3.org/2000/svg">
<g id="Group 2">
<path id="Vector" d="M7.98197 20.6965C5.03015 20.6965 3.01727 22.1969 3.01727 24.5635C3.01727 30.2317 15.565 27.2309 15.565 35.4669C15.565 38.8337 12.6132 41.1026 7.98402 41.1026C3.89075 41.1026 1.27441 39.6348 0 38.5694L1.30919 36.9348C2.34836 37.8009 4.36124 39.2688 7.98606 39.2688C11.4084 39.2688 13.4887 37.7359 13.4887 35.4669C13.4887 28.9326 0.908251 32.2323 0.908251 24.598C0.908251 21.1641 3.82734 18.8627 7.98811 18.8627C13.3885 18.8627 14.8327 22.1644 15.3687 23.797L13.3558 24.2971C13.053 23.1627 11.7111 20.6965 7.98811 20.6965H7.98197Z" fill="white"/>
<path id="Vector_2" d="M37.0693 25.8322L35.0564 26.1657C35.0564 24.4985 33.647 20.6966 28.9502 20.6966C24.6217 20.6966 21.2342 24.1305 21.2342 30.0001C21.2342 36.2356 24.8918 39.2689 29.4207 39.2689C32.8083 39.2689 34.9562 37.2358 35.9626 35.8676L37.2718 37.1687C36.5333 38.169 34.0847 41.1028 29.3532 41.1028C23.2819 41.1028 19.1211 37.002 19.1211 30.0001C19.1211 22.9981 23.2144 18.8628 28.9175 18.8628C35.0564 18.8628 37.0018 23.4637 37.0693 25.8322Z" fill="white"/>
<path id="Vector_3" d="M58.0359 41.003C58.0359 41.003 57.4652 41.1027 56.7615 41.1027C51.1259 41.1027 52.6355 32.2669 46.5294 32.2669H43.8128V40.936H41.7324V19.064H48.174C52.971 19.064 55.8901 21.3309 55.8901 25.7325C55.8901 29.0342 53.6767 31.167 50.4897 31.9334C53.8117 33.2 54.0797 39.403 57.3343 39.403C57.6698 39.403 57.8702 39.3359 57.8702 39.3359L58.038 41.003H58.0359ZM47.8038 30.5997C51.1913 30.5997 53.7749 28.8655 53.7749 25.7325C53.7749 22.5995 51.627 20.8653 48.0718 20.8653H43.8108V30.6018H47.8038V30.5997Z" fill="white"/>
<path id="Vector_4" d="M115 40.9359H112.584L102.152 25.0656C101.446 23.9311 100.374 22.0973 100.239 21.8309L100.104 21.898C100.171 22.1643 100.239 23.4981 100.239 24.8663L100.306 40.9379H98.1934V19.0659H100.609L111.042 35.0379C112.048 36.6379 112.619 37.6728 112.92 38.238L113.087 38.1709C113.055 37.8049 112.92 36.5363 112.92 35.17L112.887 19.0659H115V40.9379V40.9359Z" fill="white"/>
<g id="Group">
<path id="Union" d="M79.8721 16.0974C79.4528 16.2743 79.0333 16.4491 78.6201 16.6219C79.9804 17.1871 81.3393 17.7666 82.6914 18.3826C83.1494 18.6 83.6257 18.8256 84.1123 19.0613H79.9258V20.8631H87.5742C90.8041 22.7335 93.7541 25.1751 94.333 28.6658H81.9707V30.4656H94.4141C94.1234 34.1717 90.8982 36.9592 87.0752 39.1346H79.9258V40.9353H83.5342C81.5152 41.8685 79.5241 42.6655 77.8672 43.3689C77.5952 43.4828 77.3336 43.5951 77.082 43.7049C77.0227 43.7313 76.9655 43.7576 76.9082 43.782C75.7485 44.2719 74.5743 44.7557 73.4043 45.2517C73.1465 45.3615 72.8886 45.472 72.6309 45.5838C70.0985 46.6735 67.5886 47.8442 65.2588 49.2937C62.624 51.2902 60.0622 53.8254 59.2256 57.117C59.0292 57.9362 58.9457 58.7677 58.9805 59.5808C58.9846 59.7008 59.156 59.7172 59.1826 59.6014C59.3545 58.8207 59.6203 58.0783 59.9844 57.3973C61.3999 54.7056 64.0982 53.02 66.7676 51.7107C66.9925 51.5949 67.2219 51.4835 67.4346 51.3494C70.2432 49.6416 73.267 48.3894 76.3047 47.1228C76.5686 47.0131 76.8327 46.9026 77.0986 46.7908C77.4013 46.6648 77.7061 46.537 78.0088 46.409C78.872 46.0349 79.8047 45.6467 80.7783 45.2381C81.036 45.1303 81.2957 45.0198 81.5596 44.908C84.1984 43.7918 87.069 42.515 89.626 40.9353C90.532 40.3763 91.3993 39.7769 92.2031 39.1346C95.1753 36.7579 97.2802 33.7712 97.3008 29.8474C97.2987 26.0497 95.3024 23.1482 92.5654 20.8631C91.7901 20.2145 90.9532 19.6163 90.0879 19.0613C88.067 17.7664 85.8782 16.7035 83.8818 15.7928C83.3521 15.5488 82.818 15.3126 82.2842 15.0808C81.4762 15.4265 80.6719 15.764 79.8721 16.0974ZM59.1729 0.0788914C59.1483 -0.0369948 58.9759 -0.0204732 58.9697 0.0974461C58.7245 4.37896 61.9526 7.99153 65.25 10.4129C67.8949 11.9905 70.6134 13.2554 73.3545 14.4285C73.7186 14.276 74.0768 14.1257 74.4307 13.9773C75.2162 13.648 75.9613 13.3371 76.667 13.0301C76.7855 12.9793 76.9039 12.9304 77.0225 12.8816C73.5123 11.4321 70.0288 9.94346 66.7764 7.97147C63.3541 6.33079 60.0055 3.91727 59.1729 0.0788914Z" fill="url(#paint0_linear_1672_1213)"/>
<path id="Union_2" d="M80.4868 46.0225C79.7013 46.3518 78.9563 46.6627 78.2505 46.9697C78.132 47.0205 78.0136 47.0694 77.8951 47.1182C81.4052 48.5677 84.8887 50.0563 88.1411 52.0283C91.5635 53.669 94.9121 56.0824 95.7447 59.9209C95.7692 60.0368 95.9417 60.0202 95.9478 59.9023C96.1931 55.6209 92.9649 52.0083 89.6675 49.5869C87.0227 48.0093 84.304 46.7443 81.563 45.5713C81.199 45.7237 80.8407 45.8741 80.4868 46.0225ZM95.939 0.416983C95.9329 0.297031 95.7614 0.280589 95.7369 0.396476C95.565 1.17709 95.2993 1.91949 94.9331 2.60253C93.5176 5.29417 90.8193 6.97979 88.1499 8.28905C87.925 8.4049 87.6956 8.51626 87.4829 8.65038C84.6743 10.3582 81.6505 11.6103 78.6128 12.8769C78.3489 12.9867 78.0848 13.0972 77.8189 13.209C77.5163 13.335 77.2113 13.4628 76.9087 13.5908C76.0455 13.9649 75.1128 14.3531 74.1392 14.7617C73.8814 14.8695 73.6218 14.98 73.3579 15.0918C70.7213 16.2079 67.8533 17.4819 65.2964 19.0615C64.3902 19.6206 63.5222 20.2188 62.7183 20.8633C60.1307 22.9308 58.1997 25.46 57.7271 28.666C57.6575 29.1458 57.6188 29.6401 57.6167 30.1523C57.6167 30.2581 57.6185 30.3621 57.6226 30.4658C57.729 34.109 59.689 36.9106 62.3482 39.1348C63.1234 39.7813 63.9584 40.3805 64.8257 40.9355C66.8467 42.2326 69.0372 43.2962 71.0357 44.207C71.5654 44.451 72.0995 44.6872 72.6333 44.9189C73.4414 44.5733 74.2456 44.2358 75.0454 43.9023C75.4648 43.7255 75.8842 43.5507 76.2974 43.3779C74.9371 42.8127 73.5783 42.2332 72.2261 41.6172C71.768 41.3997 71.2891 41.1713 70.8003 40.9355H74.9947V39.1348H67.3394C63.8497 37.1119 60.6893 34.4241 60.4908 30.4658H72.8648V28.666H60.6275C61.3108 25.3867 64.3268 22.8658 67.8472 20.8633H74.9947V19.0615H71.3882C73.405 18.1284 75.3956 17.3322 77.0503 16.6308C77.3223 16.517 77.5839 16.4047 77.8355 16.2949C77.8947 16.2685 77.9521 16.2421 78.0093 16.2178C79.169 15.7279 80.3433 15.244 81.5132 14.748C81.771 14.6383 82.0289 14.5278 82.2867 14.416C84.8191 13.3263 87.3298 12.1556 89.6597 10.706C92.2943 8.7096 94.8553 6.17422 95.6919 2.8828C95.8883 2.06159 95.9737 1.23007 95.939 0.416983Z" fill="url(#paint1_linear_1672_1213)"/>
</g>
</g>
<defs>
<linearGradient id="paint0_linear_1672_1213" x1="68.9271" y1="49.9997" x2="72.927" y2="9.99992" gradientUnits="userSpaceOnUse">
<stop stop-color="#9AC5FF"/>
<stop offset="0.49969" stop-color="#B5FFB4"/>
<stop offset="1" stop-color="#FADA80"/>
</linearGradient>
<linearGradient id="paint1_linear_1672_1213" x1="80.428" y1="12.0003" x2="89.4278" y2="51.0001" gradientUnits="userSpaceOnUse">
<stop stop-color="#9AC5FF"/>
<stop offset="0.5" stop-color="#FF6E6E"/>
<stop offset="1" stop-color="#FADA80"/>
</linearGradient>
</defs>
</svg>
