<svg width="41" height="60" viewBox="0 0 41 60" fill="none" xmlns="http://www.w3.org/2000/svg">
<path fill-rule="evenodd" clip-rule="evenodd" d="M23.8812 14.1417C23.7499 14.0866 23.6193 14.0318 23.4893 13.9772C23.4219 13.949 23.3548 13.9208 23.288 13.8928C22.5763 13.5945 21.8986 13.3104 21.2534 13.0298C21.1351 12.9791 21.0167 12.9304 20.8984 12.8818L20.8975 12.8814C24.4077 11.4318 27.8914 9.94356 31.1439 7.97146C34.5662 6.33076 37.9149 3.91748 38.7475 0.0790056C38.772 -0.0368806 38.9438 -0.0206159 38.95 0.0973034C39.1954 4.37899 35.9675 7.9918 32.6699 10.4132C30.025 11.9909 27.3064 13.2555 24.5652 14.4286C24.3349 14.3321 24.1071 14.2365 23.8812 14.1417ZM38.737 59.6017C38.7636 59.7176 38.9355 59.7013 38.9395 59.5813C38.9743 58.7681 38.8904 57.9366 38.6941 57.1172C37.8574 53.8257 35.2963 51.2904 32.6616 49.2939C30.3316 47.8443 27.8217 46.6733 25.2892 45.5835C25.0314 45.4717 24.7737 45.3619 24.5159 45.2521C23.8897 44.9866 23.2624 44.7246 22.6367 44.4633C22.0932 44.2364 21.551 44.01 21.0118 43.7822C20.9724 43.7654 20.933 43.7476 20.8929 43.7296C20.8747 43.7214 20.8564 43.7132 20.8379 43.7049C20.5863 43.5952 20.3245 43.4833 20.0524 43.3695C19.6078 43.1807 19.1392 42.9852 18.6525 42.7822C17.3253 42.2285 15.8633 41.6187 14.3861 40.9359H17.9945V39.1346H10.8451C7.0219 36.9591 3.79597 34.1718 3.50549 30.4655H15.9489V28.6662H3.58732C4.16622 25.1754 7.11599 22.7336 10.346 20.8632H17.9945V19.0618H13.8072C14.2444 18.8501 14.6733 18.6465 15.088 18.4497C15.1352 18.4273 15.1821 18.405 15.2289 18.3828C16.581 17.7668 17.9393 17.1873 19.2996 16.6221C19.2143 16.5864 19.1287 16.5507 19.0429 16.5148C18.7132 16.377 18.3805 16.2379 18.0477 16.0976C17.2479 15.7642 16.444 15.4267 15.636 15.0811C15.1021 15.3128 14.5681 15.5487 14.0383 15.7926C12.0418 16.7035 9.85302 17.7668 7.83196 19.0618C6.96666 19.6169 6.13001 20.2146 5.35473 20.8632C2.6177 23.1484 0.621186 26.0496 0.619141 29.8474C0.639597 33.7713 2.74453 36.7579 5.7168 39.1346C6.52072 39.777 7.38806 40.3768 8.29427 40.9359C10.8513 42.5156 13.7213 43.7924 16.3601 44.9085C16.624 45.0203 16.8838 45.1301 17.1415 45.2379C17.3127 45.3097 17.4827 45.381 17.6512 45.4516C18.4411 45.7826 19.1998 46.1006 19.9113 46.409C20.214 46.537 20.5188 46.6651 20.8216 46.7912C21.0873 46.9029 21.351 47.0126 21.6147 47.1223L21.6153 47.1226L21.7514 47.1793C24.7433 48.4267 27.7184 49.6671 30.485 51.3494C30.6623 51.4612 30.8509 51.5574 31.039 51.6535C31.0767 51.6727 31.1144 51.6919 31.1519 51.7113C33.8214 53.0206 36.5196 54.706 37.9352 57.3978C38.2993 58.0789 38.5652 58.821 38.737 59.6017Z" fill="url(#paint0_linear_438_87)"/>
<path fill-rule="evenodd" clip-rule="evenodd" d="M40.2985 30.4656C40.3026 30.3619 40.3046 30.2582 40.3046 30.1525C40.3026 29.6402 40.2637 29.1461 40.1941 28.6663C39.7216 25.4601 37.7906 22.931 35.2029 20.8633C34.3989 20.2188 33.5316 19.6211 32.6254 19.062C30.0684 17.4823 27.2004 16.2075 24.5636 15.0914C24.2998 14.9795 24.04 14.8698 23.7822 14.762C23.6109 14.6901 23.4409 14.6189 23.2723 14.5482C22.4825 14.2172 21.7239 13.8992 21.0125 13.5909C20.7097 13.4629 20.4049 13.3348 20.1022 13.2087C19.8362 13.0969 19.5724 12.9871 19.3085 12.8773L19.1724 12.8206C16.1805 11.5732 13.2054 10.3328 10.4387 8.65054C10.2615 8.53875 10.0729 8.44248 9.88477 8.34646C9.84707 8.32722 9.8094 8.30799 9.77184 8.28865C7.10232 6.97933 4.40416 5.2939 2.9886 2.60209C2.62243 1.91897 2.35651 1.17689 2.18467 0.396188C2.16013 0.280301 1.98829 0.296566 1.98216 0.416518C1.94738 1.22975 2.0333 2.06129 2.22968 2.88266C3.06633 6.17423 5.62743 8.70949 8.26218 10.706C10.5921 12.1556 13.1021 13.3266 15.6346 14.4164C15.8922 14.5281 16.1498 14.6379 16.4074 14.7476L16.4078 14.7478C17.034 15.0133 17.6614 15.2753 18.2871 15.5366C18.8306 15.7635 19.3728 15.9899 19.9119 16.2177C19.9513 16.2345 19.9907 16.2522 20.0308 16.2703C20.049 16.2785 20.0673 16.2867 20.0858 16.295C20.3374 16.4047 20.5993 16.5166 20.8713 16.6304C21.3039 16.8138 21.7595 17.0037 22.2325 17.2008C23.5687 17.7578 25.0439 18.3728 26.5336 19.062H22.9272V20.8633H30.0745C33.595 22.8659 36.6102 25.3869 37.2935 28.6663H25.0566V30.4656H37.4305C37.2321 34.424 34.0716 37.1118 30.5818 39.1347H22.9272V40.936H27.1207C26.6318 41.1719 26.1531 41.3996 25.6949 41.6171C24.3427 42.2331 22.9844 42.8126 21.6241 43.3778C21.7098 43.4136 21.7958 43.4495 21.882 43.4855C22.2113 43.6232 22.5436 43.7621 22.876 43.9023C23.6758 44.2357 24.4798 44.5732 25.2878 44.9188C25.8217 44.6871 26.3556 44.4512 26.8854 44.2073C28.884 43.2964 31.0748 42.2331 33.0959 40.936C33.9632 40.381 34.7978 39.7812 35.5731 39.1347C38.2324 36.9105 40.1921 34.1089 40.2985 30.4656ZM17.0455 45.8593C17.1759 45.914 17.3056 45.9685 17.4348 46.0226C17.5023 46.0509 17.5695 46.0791 17.6365 46.1072C18.348 46.4054 19.0256 46.6894 19.6707 46.9701C19.7887 47.0206 19.9068 47.0692 20.0249 47.1178L20.0266 47.1185C16.5163 48.5681 13.0327 50.0563 9.78015 52.0284C6.35785 53.6691 3.00918 56.0824 2.17662 59.9208C2.15207 60.0367 1.98024 60.0205 1.9741 59.9025C1.72863 55.6209 4.9566 52.0081 8.25412 49.5866C10.8991 48.009 13.6177 46.7444 16.3588 45.5713C16.59 45.6681 16.8187 45.7641 17.0455 45.8593Z" fill="url(#paint1_linear_438_87)"/>
<defs>
<linearGradient id="paint0_linear_438_87" x1="28.9927" y1="50" x2="24.9927" y2="10" gradientUnits="userSpaceOnUse">
<stop stop-color="#9AC5FF"/>
<stop offset="0.49969" stop-color="#77C776"/>
<stop offset="1" stop-color="#FECC4A"/>
</linearGradient>
<linearGradient id="paint1_linear_438_87" x1="17.4937" y1="12" x2="8.49365" y2="51" gradientUnits="userSpaceOnUse">
<stop stop-color="#9AC5FF"/>
<stop offset="0.5" stop-color="#FF6E6E"/>
<stop offset="1" stop-color="#FECC4A"/>
</linearGradient>
</defs>
</svg>
