<svg width="41" height="61" viewBox="0 0 41 61" fill="none" xmlns="http://www.w3.org/2000/svg">
<g clip-path="url(#clip0_1808_98)">
<path d="M27.5081 16.2336C29.2956 17.0722 31.1959 18.0358 32.9671 19.177C33.8322 19.7354 34.6694 20.337 35.4446 20.9895C38.1811 23.2884 40.1768 26.2071 40.179 30.0276C40.1585 33.9751 38.0542 36.9803 35.0823 39.3713C34.2785 40.0176 33.4112 40.6214 32.5051 41.1838C29.9486 42.7729 27.079 44.0571 24.4407 45.1799C24.1768 45.2924 23.9162 45.4026 23.6585 45.511C22.6851 45.922 21.7529 46.3134 20.8899 46.6897C20.5873 46.8185 20.2824 46.9477 19.9798 47.0744C19.7139 47.1869 19.4496 47.297 19.1858 47.4074C16.1484 48.6817 13.1249 49.9413 10.3167 51.6594C10.1041 51.7943 9.87548 51.9072 9.65065 52.0237C6.98147 53.3409 4.28285 55.0363 2.86745 57.7444C2.50338 58.4296 2.2375 59.1767 2.06569 59.9621C2.03883 60.0782 1.86788 60.0619 1.86354 59.9416C1.82877 59.1235 1.91231 58.2864 2.10866 57.4621C2.94525 54.1508 5.50651 51.6005 8.14089 49.592C10.4705 48.1337 12.9799 46.9549 15.512 45.8586C15.7697 45.7461 16.0277 45.6361 16.2854 45.5256C17.4554 45.0265 18.6296 44.54 19.7893 44.0471C19.8466 44.0226 19.9039 43.9955 19.9632 43.969C20.2146 43.8586 20.4764 43.7465 20.7483 43.6321C22.4051 42.9244 24.3956 42.1226 26.4143 41.1838H22.8059V39.3713H29.9544C33.7771 37.1828 37.0028 34.3783 37.2932 30.6496H24.8518V28.8401H37.2112C36.6324 25.3282 33.683 22.8712 30.4534 20.9895H22.8059V19.177H26.9925C26.5059 18.9398 26.0295 18.7131 25.5716 18.4944C25.0235 18.2428 24.4732 17.9974 23.9231 17.7561L27.5081 16.2336ZM1.8528 0.0978762C1.85913 -0.0204086 2.03008 -0.0367139 2.05495 0.0793215C2.88738 3.94081 6.23574 6.36915 9.65749 8.01975C12.2162 9.58036 14.9185 10.8407 17.6633 12.0168L14.052 13.5471C12.0522 12.633 10.0726 11.6394 8.1321 10.4739C4.83504 8.03783 1.60941 4.40532 1.8528 0.0978762Z" fill="url(#paint0_linear_1808_98)"/>
<path d="M26.7979 46.892C28.7387 47.7837 30.6613 48.7551 32.5449 49.8861C35.842 52.3221 39.0697 55.9575 38.8242 60.265C38.8178 60.3832 38.647 60.3995 38.6221 60.2836C37.7896 56.4219 34.4404 53.9937 31.0186 52.3431C29.2185 51.2448 25.3756 49.4491 23.1504 48.4408L26.7979 46.892ZM38.6133 0.398796C38.6379 0.282273 38.8093 0.298673 38.8154 0.419304C38.8502 1.23745 38.7647 2.07442 38.5684 2.90075C37.7317 6.212 35.1705 8.7624 32.5361 10.7709C30.2066 12.2291 27.6971 13.407 25.165 14.5033C24.9073 14.6158 24.6493 14.7268 24.3916 14.8373C23.2219 15.3362 22.0481 15.823 20.8887 16.3158C20.8315 16.3403 20.7741 16.3674 20.7148 16.3939C20.4633 16.5044 20.2007 16.6163 19.9287 16.7308C18.2741 17.4364 16.2842 18.2384 14.2676 19.1771H17.873V20.9896H10.7266C7.20675 23.0042 4.19206 25.5403 3.50879 28.8392H15.7441V30.6498H3.37207C3.57049 34.6321 6.73035 37.3363 10.2197 39.3715H17.873V41.183H13.6807C14.1695 41.4202 14.6483 41.6497 15.1064 41.8685C15.5646 42.0792 16.1963 42.3576 16.8057 42.6234L13.208 44.1468C11.4081 43.3042 9.4896 42.3345 7.70605 41.183C6.83885 40.6246 6.00369 40.0219 5.22852 39.3715C2.56961 37.1338 0.610268 34.315 0.503906 30.6498C0.499816 30.5455 0.498047 30.4407 0.498047 30.3343C0.500112 29.8191 0.538875 29.3218 0.608398 28.8392C1.08097 25.6139 3.01232 23.0697 5.59961 20.9896C6.40338 20.3413 7.27074 19.7395 8.17676 19.1771C10.7334 17.588 13.601 16.3058 16.2373 15.183C16.5011 15.0705 16.7609 14.9593 17.0186 14.8509C17.9921 14.4399 18.925 14.0495 19.7881 13.6732C20.0907 13.5444 20.3956 13.4152 20.6982 13.2884C20.9639 13.176 21.2276 13.0658 21.4912 12.9554C24.5285 11.6812 27.5521 10.4215 30.3604 8.70348C30.5731 8.56849 30.8024 8.45581 31.0273 8.33923C33.6964 7.02207 36.3941 5.32636 37.8096 2.61852C38.1757 1.93128 38.4415 1.18421 38.6133 0.398796Z" fill="url(#paint1_linear_1808_98)"/>
</g>
<defs>
<linearGradient id="paint0_linear_1808_98" x1="30.2098" y1="50.302" x2="26.1613" y2="10.0655" gradientUnits="userSpaceOnUse">
<stop stop-color="#9AC5FF"/>
<stop offset="0.49969" stop-color="#B5FFB4"/>
<stop offset="1" stop-color="#FADA80"/>
</linearGradient>
<linearGradient id="paint1_linear_1808_98" x1="16.029" y1="12.0728" x2="6.9246" y2="51.2839" gradientUnits="userSpaceOnUse">
<stop stop-color="#9AC5FF"/>
<stop offset="0.5" stop-color="#FF6E6E"/>
<stop offset="1" stop-color="#FADA80"/>
</linearGradient>
<clipPath id="clip0_1808_98">
<rect width="39.68" height="60.3627" fill="white" transform="translate(0.5)"/>
</clipPath>
</defs>
</svg>
