<svg width="83" height="126" viewBox="0 0 83 126" fill="none" xmlns="http://www.w3.org/2000/svg">
<path d="M56.5492 34.0234C60.2809 35.765 64.2481 37.7655 67.9457 40.1358C69.7516 41.2953 71.4975 42.5445 73.1156 43.8994C78.8284 48.6739 82.9961 54.7352 83.0004 62.6699C82.9576 70.8678 78.5643 77.1077 72.3607 82.0733C70.6828 83.4155 68.8722 84.6689 66.9808 85.8369C61.6437 89.1374 55.6528 91.8047 50.1449 94.1367C49.5941 94.3703 49.052 94.6001 48.514 94.8252C46.4817 95.679 44.5346 96.4899 42.7328 97.2715C42.101 97.539 41.4651 97.807 40.8334 98.0703C40.2783 98.3039 39.7269 98.5333 39.1761 98.7627C32.8357 101.409 26.5247 104.026 20.6625 107.594C20.2185 107.874 19.7404 108.108 19.2709 108.35C13.699 111.085 8.06732 114.607 5.11266 120.23C4.35265 121.653 3.79748 123.205 3.43883 124.836C3.38294 125.078 3.02451 125.043 3.01598 124.793C2.94339 123.094 3.11878 121.356 3.52867 119.645C5.27502 112.768 10.6212 107.471 16.1205 103.3C20.9836 100.271 26.2224 97.8236 31.5082 95.5469C32.046 95.3133 32.5837 95.0838 33.1214 94.8545C35.5637 93.8181 38.015 92.8079 40.4359 91.7842C40.5554 91.7332 40.6754 91.6773 40.7992 91.6221C41.324 91.3928 41.8703 91.1596 42.4379 90.9219C45.8962 89.4522 50.0509 87.7866 54.265 85.8369H46.7337V82.0733H61.6566C69.6364 77.5282 76.3697 71.7044 76.9759 63.9609H51.0033V60.2022H76.805C75.5967 52.9088 69.4394 47.8073 62.6976 43.8994H46.7337V40.1358H55.474C54.4578 39.643 53.4626 39.1713 52.5062 38.7168C51.362 38.1943 50.2133 37.6848 49.0648 37.1836L56.5492 34.0234ZM28.4964 28.1367H28.4916L28.4935 28.1348L28.4964 28.1367ZM3.02769 0.203134C3.04067 -0.0430664 3.39932 -0.0770124 3.45055 0.165048C5.18833 8.18471 12.1775 13.2264 19.3207 16.6543C24.6619 19.8953 30.3018 22.5127 36.0316 24.9551L28.4935 28.1348C24.3187 26.2364 20.1862 24.1726 16.1351 21.752C9.25245 16.6929 2.51961 9.14878 3.02769 0.203134Z" fill="url(#paint0_linear_1844_447)"/>
<path d="M54.8721 98.0348C58.9229 99.8862 62.9358 101.903 66.8672 104.252C73.748 109.309 80.4839 116.855 79.9717 125.797C79.9586 126.043 79.6001 126.077 79.5488 125.836C77.8115 117.818 70.8239 112.778 63.6826 109.351C59.9262 107.071 51.9059 103.342 47.2617 101.249L54.8721 98.0348ZM79.5449 1.16467C79.5964 0.922998 79.954 0.95722 79.9668 1.20764C80.0393 2.90608 79.8599 4.64261 79.4502 6.35803C77.7044 13.2329 72.3602 18.528 66.8623 22.6979C62.0005 25.7255 56.7629 28.1719 51.4785 30.4479C50.9408 30.6814 50.403 30.911 49.8652 31.1403C47.4239 32.1763 44.9738 33.1863 42.5537 34.2096C42.4342 34.2605 42.3142 34.3165 42.1904 34.3717C41.6656 34.6009 41.1193 34.8342 40.5518 35.0719C37.0985 36.5369 32.9451 38.202 28.7363 40.151H36.2617V43.9127H21.3467C14.0006 48.0953 7.70889 53.3613 6.2832 60.2106H31.8174V63.9684H5.99707C6.41112 72.2359 13.006 77.8497 20.2881 82.0748H36.2617V85.8365H27.5107C28.5309 86.3291 29.5302 86.805 30.4863 87.2594C31.4425 87.6968 32.7613 88.2748 34.0332 88.8268L26.5244 91.9899C22.7682 90.2404 18.7641 88.2272 15.042 85.8365C13.2323 84.6774 11.4907 83.425 9.87305 82.0748C4.32395 77.4293 0.234667 71.5778 0.0126953 63.9684C0.0041582 63.7518 0 63.5349 0 63.3141C0.00428359 62.2442 0.0853736 61.2125 0.230469 60.2106C1.2165 53.5141 5.24583 48.2312 10.6455 43.9127C12.3231 42.5666 14.1334 41.3187 16.0244 40.151C21.3601 36.8516 27.3445 34.1883 32.8467 31.8571C33.3972 31.6235 33.9398 31.3946 34.4775 31.1696C36.5092 30.3161 38.4556 29.5045 40.2568 28.7233C40.8885 28.4558 41.5246 28.1886 42.1562 27.9254C42.7112 27.6919 43.2619 27.4623 43.8125 27.233C50.1513 24.5876 56.4606 21.9718 62.3213 18.4049C62.7651 18.1247 63.2435 17.891 63.7129 17.649C69.2832 14.9144 74.9134 11.3941 77.8672 5.77209C78.6312 4.34537 79.1864 2.79519 79.5449 1.16467Z" fill="url(#paint1_linear_1844_447)"/>
<defs>
<linearGradient id="paint0_linear_1844_447" x1="62.2221" y1="104.465" x2="53.8569" y2="20.8946" gradientUnits="userSpaceOnUse">
<stop stop-color="#9AC5FF"/>
<stop offset="0.49969" stop-color="#B5FFB4"/>
<stop offset="1" stop-color="#FADA80"/>
</linearGradient>
<linearGradient id="paint1_linear_1844_447" x1="32.4122" y1="25.401" x2="13.5992" y2="106.849" gradientUnits="userSpaceOnUse">
<stop stop-color="#9AC5FF"/>
<stop offset="0.5" stop-color="#FF6E6E"/>
<stop offset="1" stop-color="#FADA80"/>
</linearGradient>
</defs>
</svg>
